<svg xmlns="http://www.w3.org/2000/svg" width="160" height="164" fill="none" viewBox="0 0 160 164">
  <path fill="#fff" d="M77.128 89.674c-4.266 1.246-8.532 2.509-12.798 3.74a10.45 10.45 0 01-1.562.335c-3.107.304-5.65 1.422-8.21 3.436-5.023 3.932-6.858 9.11-7.76 15.008-.901 5.881-4.137 10.452-9.096 13.872 1.03-1.534 2.142-3.004 3.075-4.587 2.512-4.203 3.43-8.838 4.138-13.633.402-2.685 1.835-5.226 2.898-7.799 1.094-2.637 2.35-5.21 3.412-7.863 1.337-3.293 4.057-5.05 7.1-6.33 5.715-2.412 11.494-4.618 17.242-6.935 4.443-1.806 11.526-1.071 14.054 2.045 3.332 4.108 3.574 6.809-.564 10.213-4.974 4.075-9.45 8.774-14.022 13.313-1.561 1.55-2.785 3.436-4.17 5.162.081.208.162.416.242.64 1.272-.224 2.544-.4 3.8-.703 3.622-.88 6.52-.016 8.145 2.493 1.337 2.045.741 3.979-1.658 4.347-2.447.383-4.974.256-7.47.368-2.286.095-4.588.191-6.874.367-.499.032-1.094.256-1.432.607a3835.27 3835.27 0 00-18.288 17.805c-.29.287-.403.751-.467.863 3.541 0 7.212.511 10.657-.128 5.087-.943 9.885-.208 14.682 1.119 4.073 1.134 4.234.991 6.246-2.765 1.69-3.149 3.735-6.122 5.78-9.062 2.769-3.98 4.443-8.183 4.427-13.138 0-2.908.37-6.009 1.433-8.694 1.593-4.044 3.928-7.815 5.988-11.683 2.029-3.82 4.621-7.432 6.037-11.443 2.109-5.946 6.053-9.254 11.946-10.932 3.01-.863 5.924-1.407 8.95-.432 2.721.88 4.717 2.861 5.796 5.322 1.384 3.165 2.511 6.521 3.091 9.91.676 4.075-.805 7.895-3.284 11.139-2.302 3.02-5.2 5.61-7.438 8.678-1.819 2.494-2.994 5.434-4.556 8.119-.74 1.279-1.545 2.573-2.576 3.612-2.06 2.062-4.411 1.295-5.071-1.55-.966-4.171.387-7.943 2.447-11.379 2.351-3.916 5.184-7.528 7.744-11.332 2.318-3.452 2.527-7.256 1.481-11.155-.306-1.151-1.095-1.39-2.415-1.31-3.155.19-5.361 1.597-6.842 4.25-3.075 5.514-7.936 9.558-11.913 14.32-1.835 2.206-3.67 4.491-4.99 7.017-.741 1.422-1.08 3.66-.467 5.034 2.753 6.265 1.851 12.163-.79 18.124-.772 1.726-1.27 3.612-1.625 5.466-.177.895.274 1.902.402 2.701 3.606-2.845 6.842-5.578 10.287-8.039 1.514-1.071 3.365-1.854 5.184-2.27 1.063-.239 2.351.48 3.542.768-.386 1.246-.419 2.828-1.224 3.659-3.847 3.964-7.952 7.688-11.897 11.556-1.674 1.646-3.606 2.477-5.811 1.742-2.608-.863-3.944-3.085-3.864-5.658.08-2.861.596-5.738 1.304-8.519.821-3.196 2.045-6.297 3.14-9.573-.5.032-.725-.016-.773.064-2.818 4.587-5.667 9.158-8.42 13.793-.966 1.63-1.61 3.468-2.576 5.114-.467.799-1.593 2.062-1.996 1.918-2.27-.799-3.719 1.486-5.747 1.231-2.045-.256-4.121-.384-6.15-.736-6.327-1.086-12.605.288-18.916.352-1.851.016-3.67 1.438-5.554 2.03-1.53.463-3.236.767-4.298-.959-1.111-1.806-.58-3.708.58-5.099 2.285-2.733 4.877-5.21 7.373-7.783 3.348-3.452 6.697-6.888 10.029-10.356.338-.352.499-.895.821-1.471-1.835 0-3.493.128-5.103-.064-.548-.064-1.24-.895-1.385-1.502-.08-.352.693-1.135 1.24-1.359 1.465-.623 3.01-1.374 4.556-1.47 2.35-.128 3.236-1.263 3.847-3.324 1.4-4.763 5.071-7.991 8.404-11.38 2.93-2.972 6.005-5.801 9.015-8.694-.193-.16-.338-.352-.483-.543zM10.014 120.519c-1.015.496-1.803.895-3.188 1.583.547-1.023.74-1.567 1.079-1.966 2.173-2.541 3.67-5.114 3.203-8.774-.628-5.003 1.755-9.446 3.67-13.905 1.74-4.027 3.72-7.975 5.185-12.114 1.078-3.053 1.352-6.377 2.253-9.51 1.803-6.265 5.49-11.395 10.303-15.742 2.222-2.014 4.573-3.9 6.971-5.706 3.027-2.286 8.517-1.487 10.706 1.646 1.223 1.742 1.4 3.852.435 5.802-1.288 2.589-3.01 4.97-4.057 7.64-1.626 4.154-2.946 8.438-4.202 12.721-1.658 5.674-5.248 9.989-9.45 13.92-3.204 3.005-6.552 5.85-9.691 8.935-1.626 1.582-3.14 3.372-4.299 5.306-.724 1.214-.756 2.861-.982 4.331-.338 2.19-.595 4.379-.933 6.984.837-1.454 1.593-2.653 2.221-3.899 2.109-4.204 3.638-8.807 6.391-12.547 2.801-3.787 6.73-6.76 10.24-10.02 1.255-1.167 3.219-.911 3.847.75.692 1.823.966 3.916.901 5.882-.129 4.156-.241 8.375-1.03 12.45-.612 3.085-2.029 6.074-3.526 8.887-1.61 3.02-3.735 5.769-5.312 8.95 1.465-1.039 2.946-2.078 4.41-3.117.178.096.355.208.532.304-3.027 4.73-5.973 9.509-9.144 14.144-1.207 1.758-2.882 3.356-5.441 2.381-1.884-.735-2.979-3.26-2.689-5.977.467-4.139 2.431-7.671 4.91-10.868 4.218-5.45 6.842-11.395 7.02-18.38.064-2.733.836-5.434 1.32-8.31-.435.351-1.16.719-1.578 1.278-2.367 3.165-4.653 6.361-6.987 9.558-.129.191-.306.335-.435.543-4.46 7.064-9.063 14.032-13.281 21.241-1.9 3.244-3.027 6.952-4.46 10.452-.547 1.326-1.449 2.621-2.833 1.838-1.03-.575-2.109-2.19-2.093-3.324.113-5.291 2.029-10.037 5.055-14.385 1.69-2.429 3.14-5.002 4.669-7.543.21-.336.177-.815.29-1.439zm13.12-24.245c.21.144.402.288.612.432 2.334-2.733 4.862-5.322 6.922-8.231 1.288-1.806 2.302-4.012 2.689-6.17 1.191-6.568 3.123-12.769 7.164-18.187.402-.543.643-1.23 1.255-2.397-1.062.75-1.53 1.134-2.044 1.438-5.41 3.117-8.468 7.975-10.046 13.809-1.674 6.169-2.415 12.642-6.23 18.092-.225.303-.225.799-.322 1.214zM82.894 74.666c-5.972-.75-11.977-1.374-17.918-2.317-4.201-.671-7.325-3.388-8.081-7.4-.853-4.475 1.127-8.295 5.12-10.948 2.462-1.63 4.877-3.324 7.13-5.21 2.786-2.333 6.022-2.78 9.435-2.78 4.17 0 8.516-.752 12.46.19 4.556 1.088 9.257 2.814 12.396 6.793 2.27 2.861 1.208 5.994-.354 8.55-4.234 7.017-10.963 10.661-18.755 12.595-.435.112-.918.016-1.385.016l-.048.511zM65.701 56.143c-1.175 1.47-2.656 2.733-3.316 4.331-.693 1.662 1.352 4.395 3.799 4.603 5.844.511 11.784 1.055 17.596.575 4.668-.863 8.435-2.972 9.804-3.963 2.8-1.614 2.527-3.628-.242-5.354-.772-.48-1.561-.927-2.35-1.407-3.123 2.973-6.97 4.204-10.963 5.114-5.216 1.183-10.046.832-14.328-3.9zm21.347-3.309c-.644-.32-.95-.607-1.272-.639-3.494-.24-6.987-.575-10.48-.591-1.304-.016-2.689.575-3.896 1.167-.709.351-1.143 1.262-1.707 1.917.66.416 1.272 1.04 1.996 1.215 5.426 1.359 10.449.496 15.359-3.069zM137.306 106.151c.934-.207 1.852-.479 2.802-.591 2.479-.288 4.974-.767 7.437-.671 2.946.112 4.266 2.845 2.383 5.034-4.025 4.667-8.243 9.174-12.573 13.553-2.463 2.493-5.281 4.603-7.937 6.888-.161-.159-.322-.303-.467-.463 1.288-1.263 2.608-2.493 3.848-3.788 2.962-3.084 6.037-6.089 8.757-9.397 1.272-1.535 1.836-3.66 2.93-6.01-3.557.64-6.391 1.007-9.16 1.678-1.915.464-3.445-.383-4.169-1.662-.676-1.198-.982-3.372-.306-4.379 1.481-2.237 3.525-4.171 5.586-5.945 3.349-2.861 6.922-5.482 10.384-8.215.402-.32.692-.767 1.384-1.566-2.785-.336-5.184-.816-7.598-.895-2.721-.08-5.184-1.183-6.005-3.437-.95-2.605.064-4.922 1.69-6.92 2.689-3.324 5.425-6.617 8.275-9.813 2.801-3.117 5.779-6.09 9.82-7.592.95-.351 2.399-.415 3.172.08.579.384.547 1.854.595 2.845.129 2.621-1.674 4.347-3.316 5.945-2.351 2.286-3.671 5.05-4.765 8.008-.242.655-.805 1.198-1.53 2.205 1.111 0 1.803-.048 2.479.016 2.254.208 4.653.032 6.714.783 2.543.927 3.01 3.293 1.062 5.13-3.59 3.373-7.454 6.457-11.221 9.654-3.525 2.989-7.083 5.961-10.625 8.934.113.192.242.4.354.591zM14.777 160.683c3.542-1.103 7.1-2.206 10.642-3.324 5.248-1.663 10.448-3.453 15.728-4.987 7.937-2.317 16.13-2.877 24.341-3.276 3.107-.16 6.198-1.071 9.273-.991 4.137.096 8.275.815 12.412 1.246 1.143.128 2.286.192 3.43.272 3.01.208 4.539 1.694 4.587 4.523.049 2.349-2.012 4.395-4.379 4.939-4.073.959-7.84-.656-11.752-.975-4.008-.336-8.065-.144-12.106-.272-4.491-.144-8.983-.447-13.458-.543-2.35-.048-4.717.191-7.068.255-6.584.176-13.12.32-19.576 2.238-3.799 1.135-7.985.975-11.993 1.39-.016-.176-.049-.335-.08-.495zM110.356 148.552c-.934-3.244.58-5.657 4.315-6.073 4.91-.559 11.22 1.135 13.796 6.297 1.546 3.085.692 7.272-1.819 10.197-4.765 5.578-13.426 6.297-19.544 3.228-3.3-1.662-4.25-4.746-2.624-8.103 1.674-3.436 2.93-4.635 5.876-5.546zm.709 1.007c-.757 1.119-1.884 2.302-2.367 3.692-.386 1.087-.451 3.117.177 3.564 2.785 2.014 7.663 1.279 9.917-1.23.644-.72 1.433-1.966 1.207-2.669-.241-.768-1.513-1.407-2.463-1.711-2.06-.671-4.202-1.086-6.471-1.646zM81.056 32.729c.676-1.662 1.24-3.388 2.076-4.986 1.996-3.82 2.978-7.512 1.369-11.907C82.182 9.539 86.03 2.57 92.549.253c1.997-.703 3.059.08 2.689 2.094-.177.959-.322 2.11-.934 2.78-2.737 3.005-2.914 6.553-2.447 10.245.58 4.523-.901 8.28-4.008 11.54-2.012 2.11-3.944 4.315-5.908 6.488l-.885-.671zM94.21 32.57c2.239-3.213 4.605-6.33 6.666-9.654 1.545-2.493 2.688-5.21 3.976-7.848 1.143-2.365 2.995-3.356 4.669-2.445 1.867 1.023 3.155 5.099 1.948 6.617-4.25 5.354-9.016 10.149-15.117 13.457-.274.144-.547.288-.837.368-.21.064-.45.016-.66.016-.21-.176-.435-.336-.644-.512zM67.293 39.713c.193-3.212-.145-6.569.692-9.605 1.224-4.38 1.288-8.646.74-13.058-.112-.863.162-2.365.677-2.589.82-.351 2.14-.128 3.01.32 3.364 1.758 4.652 5.162 3.171 8.678-1.432 3.404-3.139 6.697-4.732 10.021l-2.995 6.233c-.177.016-.37.016-.563 0z"/>
</svg>
